<?xml version="1.0" encoding="UTF-8"?>
<svg id="Layer_1" data-name="Layer 1" xmlns="http://www.w3.org/2000/svg" viewBox="0 0 1074.2658119202 270.2249879837">
  <g>
    <path d="M6.5250205994,227.924946785l39.6000137329,39.6000137329c1.7999725342,1.7999725342,3.6000137329,2.7000274658,5.3999862671,2.7000274658s3.6000137329-.8999862671,5.3999862671-2.7000274658c23.3999862671-23.3999862671,54.8999862671-36,86.3999862671-36s62.1000137329,11.7000274658,86.3999862671,36c1.7999725342,1.7999725342,3.6000137329,2.7000274658,5.3999862671,2.7000274658s3.6000137329-.8999862671,5.3999862671-2.7000274658l39.6000137329-39.6000137329c5.3999862671-5.3999862671,5.3999862671-14.3999862671,0-19.7999725342l-95.3999862671-91.7999725342c-11.7000274658-11.7000274658-27-18-43.2000274658-18-15.2999725342,0-31.5,6.2999725342-43.2000274658,18L6.5250205994,209.0249605179c-5.3999862671,5.3999862671-5.3999862671,13.5,0,18.8999862671Z" style="fill: #5548d9;"/>
    <path d="M64.1250343323,118.1249742508l18.8999862671-18.8999862671c16.2000274658-16.2000274658,36.8999862671-24.2999725342,59.3999862671-24.2999725342s43.2000274658,9,59.3999862671,24.2999725342l18.8999862671,18.8999862671,62.1000137329-62.1000137329c2.7000274658-2.7000274658,2.7000274658-8.1000137329,0-10.7999725342L238.7249794006,2.0249948502c-2.7000274658-2.6999931335-8.1000137329-2.6999931335-10.7999725342,0-47.7000274658,47.6999931335-124.2000274658,47.6999931335-171.8999862671,0-2.7000274658-2.6999931335-8.1000137329-2.6999931335-10.7999725342,0L2.0250205994,45.2249879837c-2.7000274658,2.7000274658-2.7000274658,8.1000137329,0,10.7999725342l62.1000137329,62.1000137329Z" style="fill: #aaa4ec;"/>
  </g>
  <g style="isolation: isolate;">
    <path d="M405.8190345764,133.6566324234l-33.66015625-50.490234375h23.255859375l22.337890625,37.0263671875,22.0322265625-37.0263671875h22.1850585938l-33.0478515625,50.94921875,38.8618164062,57.375h-24.3271484375l-26.46875-42.5341796875-25.3979492188,42.5341796875h-23.2563476562l37.4853515625-57.833984375Z"/>
    <path d="M480.3283119202,83.1663980484h30.1411132812l28.1518554688,76.958984375h.458984375l27.8466796875-76.958984375h30.29296875v108.32421875h-19.125V104.4334878922h-.306640625l-32.8940429688,87.0571289062h-13.4638671875l-32.4360351562-87.0571289062h-.3061523438v87.0571289062h-18.3598632812V83.1663980484Z"/>
    <path d="M737.5206947327,108.5648355484c-2.857421875-3.8754882812-6.5791015625-6.7060546875-11.1689453125-8.4916992188-4.58984375-1.783203125-9.080078125-2.677734375-13.4638671875-2.677734375-5.611328125,0-10.7099609375,1.0209960938-15.30078125,3.0600585938-4.58984375,2.0419921875-8.5439453125,4.8461914062-11.857421875,8.4150390625-3.3154296875,3.5717773438-5.8662109375,7.7529296875-7.6494140625,12.5458984375-1.7861328125,4.7958984375-2.677734375,9.998046875-2.677734375,15.6064453125,0,5.9169921875,.865234375,11.3212890625,2.6005859375,16.2177734375,1.7333984375,4.896484375,4.2080078125,9.103515625,7.4208984375,12.6220703125,3.212890625,3.51953125,7.0615234375,6.25,11.5517578125,8.185546875,4.4873046875,1.939453125,9.5361328125,2.9072265625,15.146484375,2.9072265625,5.814453125,0,10.9638671875-1.1474609375,15.453125-3.4423828125,4.4873046875-2.294921875,8.109375-5.3291015625,10.86328125-9.103515625l15.453125,10.86328125c-4.7958984375,6.01953125-10.66015625,10.685546875-17.595703125,13.9990234375-6.9375,3.3134765625-15.0458984375,4.97265625-24.326171875,4.97265625-8.4677734375,0-16.2451171875-1.4033203125-23.3330078125-4.20703125-7.0908203125-2.8046875-13.1845703125-6.732421875-18.283203125-11.78125-5.1015625-5.048828125-9.080078125-11.06640625-11.9345703125-18.0537109375-2.8564453125-6.9853515625-4.283203125-14.7119140625-4.283203125-23.1796875,0-8.6684570312,1.5029296875-16.498046875,4.5126953125-23.4858398438,3.0078125-6.9853515625,7.138671875-12.9282226562,12.3935546875-17.82421875,5.251953125-4.8959960938,11.4482421875-8.6684570312,18.5888671875-11.322265625,7.138671875-2.6508789062,14.8916015625-3.9780273438,23.2568359375-3.9780273438,3.4658203125,0,7.087890625,.3325195312,10.8623046875,.9946289062,3.7724609375,.6645507812,7.39453125,1.6831054688,10.86328125,3.0600585938,3.466796875,1.376953125,6.732421875,3.0864257812,9.7919921875,5.1254882812,3.0595703125,2.0415039062,5.6611328125,4.4897460938,7.802734375,7.34375l-14.6875,11.6284179688Z"/>
    <path d="M765.2140541077,75.8226480484h18.359375v115.66796875h-18.359375V75.8226480484Z"/>
    <path d="M801.6271400452,154.4642496109c0-5.8134765625,1.0439453125-11.091796875,3.1357421875-15.8349609375,2.08984375-4.7431640625,4.919921875-8.7978515625,8.4921875-12.1635742188,3.5693359375-3.3662109375,7.802734375-5.9672851562,12.6982421875-7.8032226562,4.896484375-1.8359375,10.0986328125-2.75390625,15.6064453125-2.75390625s10.7099609375,.91796875,15.6064453125,2.75390625c4.8955078125,1.8359375,9.126953125,4.4370117188,12.6982421875,7.8032226562,3.5693359375,3.3657226562,6.400390625,7.4204101562,8.4921875,12.1635742188,2.0888671875,4.7431640625,3.1357421875,10.021484375,3.1357421875,15.8349609375,0,5.814453125-1.046875,11.119140625-3.1357421875,15.912109375-2.091796875,4.7958984375-4.9228515625,8.900390625-8.4921875,12.31640625-3.5712890625,3.4189453125-7.802734375,6.0966796875-12.6982421875,8.033203125-4.896484375,1.9365234375-10.0986328125,2.90625-15.6064453125,2.90625s-10.7099609375-.9697265625-15.6064453125-2.90625c-4.8955078125-1.9365234375-9.12890625-4.6142578125-12.6982421875-8.033203125-3.572265625-3.416015625-6.40234375-7.5205078125-8.4921875-12.31640625-2.091796875-4.79296875-3.1357421875-10.09765625-3.1357421875-15.912109375Zm18.666015625,0c0,2.857421875,.4326171875,5.7138671875,1.2998046875,8.568359375,.865234375,2.8564453125,2.166015625,5.4072265625,3.9013671875,7.650390625,1.7333984375,2.244140625,3.92578125,4.080078125,6.5791015625,5.5078125,2.6513671875,1.4296875,5.814453125,2.1416015625,9.486328125,2.1416015625s6.83203125-.7119140625,9.486328125-2.1416015625c2.650390625-1.427734375,4.8427734375-3.263671875,6.5791015625-5.5078125,1.732421875-2.2431640625,3.033203125-4.7939453125,3.9013671875-7.650390625,.865234375-2.8544921875,1.2998046875-5.7109375,1.2998046875-8.568359375,0-2.8544921875-.4345703125-5.6845703125-1.2998046875-8.4912109375-.8681640625-2.8037109375-2.1689453125-5.3291015625-3.9013671875-7.5732421875-1.736328125-2.2426757812-3.9287109375-4.0546875-6.5791015625-5.431640625-2.654296875-1.376953125-5.814453125-2.0654296875-9.486328125-2.0654296875s-6.8349609375,.6884765625-9.486328125,2.0654296875c-2.6533203125,1.376953125-4.845703125,3.1889648438-6.5791015625,5.431640625-1.7353515625,2.244140625-3.0361328125,4.76953125-3.9013671875,7.5732421875-.8671875,2.806640625-1.2998046875,5.63671875-1.2998046875,8.4912109375Z"/>
    <path d="M966.2521400452,191.4906167984h-17.4423828125v-11.78125h-.3056640625c-1.6328125,3.671875-4.4638671875,6.9111328125-8.4921875,9.7158203125-4.0302734375,2.8037109375-8.796875,4.20703125-14.3046875,4.20703125-4.7958984375,0-8.900390625-.8408203125-12.31640625-2.5244140625-3.4189453125-1.6826171875-6.2236328125-3.9013671875-8.4150390625-6.6552734375-2.1953125-2.75390625-3.8017578125-5.9140625-4.8203125-9.486328125-1.0205078125-3.568359375-1.529296875-7.2412109375-1.529296875-11.015625v-45.8999023438h18.359375v40.6977539062c0,2.142578125,.1533203125,4.38671875,.458984375,6.732421875,.306640625,2.34765625,.96875,4.462890625,1.9892578125,6.349609375,1.0185546875,1.888671875,2.421875,3.4423828125,4.2080078125,4.666015625,1.783203125,1.224609375,4.154296875,1.8359375,7.1142578125,1.8359375,2.8544921875,0,5.37890625-.5859375,7.5732421875-1.759765625,2.1923828125-1.1708984375,3.978515625-2.6767578125,5.35546875-4.5126953125s2.4208984375-3.9521484375,3.1357421875-6.349609375c.712890625-2.3955078125,1.0712890625-4.8193359375,1.0712890625-7.267578125v-40.3920898438h18.3603515625v73.4399414062Z"/>
    <path d="M1062.9454994202,191.4906167984h-17.44140625v-11.015625h-.306640625c-2.55078125,4.283203125-6.095703125,7.548828125-10.6328125,9.7919921875-4.5400390625,2.2421875-9.41015625,3.365234375-14.6123046875,3.365234375-5.6103515625,0-10.6328125-1.046875-15.0703125-3.1357421875-4.4365234375-2.08984375-8.2119140625-4.896484375-11.3212890625-8.4150390625-3.11328125-3.51953125-5.5087890625-7.650390625-7.19140625-12.3935546875s-2.5244140625-9.8154296875-2.5244140625-15.2236328125c0-5.4052734375,.865234375-10.4541015625,2.6005859375-15.146484375,1.7333984375-4.6904296875,4.181640625-8.771484375,7.3447265625-12.240234375,3.16015625-3.4663085938,6.9345703125-6.1962890625,11.3212890625-8.185546875,4.384765625-1.9887695312,9.1806640625-2.9833984375,14.3818359375-2.9833984375,3.3662109375,0,6.3740234375,.3823242188,9.02734375,1.1474609375,2.6513671875,.7651367188,4.97265625,1.7094726562,6.9619140625,2.8305664062,1.98828125,1.1235351562,3.6953125,2.34765625,5.125,3.671875,1.427734375,1.3271484375,2.6015625,2.6010742188,3.51953125,3.8251953125h.458984375v-51.5610351562h18.359375v115.66796875Zm-60.4345703125-37.0263671875c0,2.857421875,.4326171875,5.7138671875,1.30078125,8.568359375,.865234375,2.8564453125,2.1650390625,5.4072265625,3.9013671875,7.650390625,1.7333984375,2.244140625,3.9248046875,4.080078125,6.5791015625,5.5078125,2.650390625,1.4296875,5.7607421875,2.1416015625,9.3330078125,2.1416015625,3.365234375,0,6.373046875-.6884765625,9.0263671875-2.0654296875,2.6513671875-1.376953125,4.919921875-3.1865234375,6.80859375-5.431640625,1.88671875-2.2421875,3.3134765625-4.7666015625,4.2841796875-7.5732421875,.9677734375-2.8037109375,1.453125-5.634765625,1.453125-8.4912109375,0-2.8544921875-.4853515625-5.7119140625-1.453125-8.568359375-.970703125-2.8544921875-2.3974609375-5.4052734375-4.2841796875-7.650390625-1.888671875-2.2412109375-4.1572265625-4.078125-6.80859375-5.5073242188-2.6533203125-1.4272460938-5.6611328125-2.1420898438-9.0263671875-2.1420898438-3.572265625,0-6.6826171875,.6884765625-9.3330078125,2.0654296875-2.654296875,1.376953125-4.845703125,3.1889648438-6.5791015625,5.431640625-1.736328125,2.244140625-3.0361328125,4.76953125-3.9013671875,7.5732421875-.8681640625,2.806640625-1.30078125,5.63671875-1.30078125,8.4912109375Z"/>
  </g>
</svg>